<?xml version="1.0" standalone="no"?>
<!DOCTYPE svg PUBLIC "-//W3C//DTD SVG 20010904//EN"
 "http://www.w3.org/TR/2001/REC-SVG-20010904/DTD/svg10.dtd">
<svg version="1.0" xmlns="http://www.w3.org/2000/svg"
 width="1080.000000pt" height="1080.000000pt" viewBox="0 0 1080.000000 1080.000000"
 preserveAspectRatio="xMidYMid meet">
<metadata>
Created by potrace 1.11, written by Peter Selinger 2001-2013
</metadata>
<g transform="translate(0.000000,1080.000000) scale(0.100000,-0.100000)"
fill="#000000" stroke="none">
<path d="M9338 10024 c-4 -3 -113 -13 -218 -19 -41 -2 -93 -7 -115 -9 -76 -10
-140 -18 -160 -22 -10 -2 -37 -6 -60 -10 -22 -3 -44 -7 -50 -8 -5 -2 -28 -6
-50 -11 -57 -11 -174 -42 -290 -77 -217 -65 -291 -89 -325 -102 -223 -90 -264
-108 -525 -237 -313 -155 -498 -257 -833 -458 -149 -90 -507 -329 -632 -422
-272 -202 -387 -304 -680 -598 -216 -218 -261 -264 -432 -454 -128 -140 -292
-300 -428 -418 -326 -281 -815 -532 -1155 -593 -16 -3 -41 -8 -55 -11 -32 -6
-81 -13 -160 -21 -71 -7 -333 -7 -365 -1 -11 3 -45 8 -75 12 -30 3 -68 9 -85
11 -52 8 -197 44 -276 68 l-77 24 -208 -212 c-115 -116 -234 -240 -264 -275
-30 -35 -60 -69 -65 -75 -34 -36 -206 -250 -289 -360 -113 -151 -286 -407
-375 -556 -34 -58 -67 -112 -72 -120 -124 -207 -429 -842 -429 -894 0 -10 198
-13 933 -13 l934 0 43 93 c36 81 172 320 189 334 3 3 22 28 40 55 19 28 37 52
40 55 4 3 22 25 42 50 20 25 54 64 76 88 l39 42 279 -6 c311 -7 331 -8 328
-21 -1 -5 -5 -43 -9 -84 -4 -41 -8 -81 -10 -89 -1 -8 -3 -35 -3 -59 l-1 -43
-47 53 c-27 29 -53 59 -60 68 -11 15 -15 14 -45 -3 -18 -11 -43 -24 -55 -30
-13 -6 -23 -14 -23 -18 0 -5 -5 -8 -11 -8 -19 0 -135 -97 -195 -163 -56 -61
-154 -201 -154 -219 0 -5 22 -41 49 -80 l49 -72 -87 -55 c-82 -52 -338 -191
-353 -191 -18 0 -203 -116 -319 -200 -145 -105 -225 -178 -244 -224 -8 -17
-12 -53 -11 -80 3 -59 -17 -85 -84 -111 -69 -26 -136 -80 -160 -129 -14 -29
-24 -76 -29 -140 -5 -55 -14 -102 -22 -112 -7 -9 -45 -31 -84 -50 -147 -69
-246 -215 -246 -360 0 -35 3 -69 6 -74 11 -18 13 -133 2 -165 -14 -42 -20 -47
-64 -51 -110 -11 -158 -30 -191 -78 -30 -44 -33 -114 -10 -206 41 -157 26
-250 -53 -352 -21 -26 -40 -60 -43 -75 -4 -16 -9 -39 -11 -53 -5 -24 -6 -330
-2 -395 3 -46 -21 -145 -48 -193 -22 -38 -19 -43 10 -20 6 5 21 17 34 28 13
11 28 17 34 13 6 -3 7 -1 3 5 -4 7 -2 12 5 12 6 0 18 8 26 18 8 9 12 11 8 4
-8 -16 0 -16 17 1 22 20 94 57 155 78 60 21 86 21 458 15 157 -3 298 42 331
105 8 16 14 31 14 34 -1 32 4 47 27 83 30 46 71 65 109 51 34 -12 144 -2 198
18 40 15 51 24 61 52 23 69 90 91 194 64 94 -25 169 -8 346 77 101 49 178 100
248 167 64 60 66 65 81 188 11 90 28 105 118 103 89 -2 113 16 221 161 47 64
116 152 152 196 72 86 109 140 172 252 62 109 130 200 211 280 73 71 74 72 98
56 24 -15 27 -14 72 17 26 19 72 54 102 78 61 50 240 231 240 243 0 4 -4 11
-10 14 -5 3 -10 12 -10 20 0 13 131 134 222 207 l38 30 -2 -263 -3 -262 -140
-98 c-77 -54 -168 -117 -203 -141 -34 -24 -104 -73 -155 -109 l-92 -65 -1
-110 c-2 -104 -15 -1481 -16 -1554 0 -66 2 -80 13 -80 15 0 334 157 459 225
128 71 354 204 433 257 32 21 63 38 68 38 5 0 9 4 9 8 0 5 10 13 23 19 19 9
323 224 366 259 9 7 66 52 126 100 244 194 520 449 735 680 97 104 91 92 75
161 -8 33 -17 85 -20 114 -3 30 -8 61 -10 69 -15 58 -22 359 -11 512 7 94 10
121 23 188 3 19 7 42 9 50 4 22 17 83 20 95 34 141 217 501 324 638 106 136
719 754 964 972 36 33 206 184 231 206 17 15 104 91 195 170 258 224 456 431
619 644 17 22 34 45 39 50 53 69 220 318 271 405 17 30 36 62 41 70 90 142
275 489 383 720 39 84 196 468 202 495 1 5 4 17 8 25 61 167 193 630 220 780
3 14 14 70 25 125 34 165 35 182 36 385 1 288 -16 410 -79 545 -57 125 -163
196 -330 220 -22 4 -49 9 -60 12 -20 6 -402 13 -407 7z"/>
<path d="M1323 2974 c-47 -23 -74 -83 -61 -135 30 -116 196 -121 229 -7 30
103 -72 189 -168 142z"/>
<path d="M1181 2514 c-34 -43 -25 -91 20 -118 54 -32 119 5 119 67 0 72 -96
106 -139 51z"/>
<path d="M2622 1259 c-71 -15 -107 -85 -78 -153 34 -80 150 -89 196 -14 51 85
-21 188 -118 167z"/>
</g>
</svg>
